<mxfile host="65bd71144e">
    <diagram id="KdiMpjQM8Yf1bzq2hjgc" name="Page-1">
        <mxGraphModel dx="183" dy="221" grid="1" gridSize="10" guides="1" tooltips="1" connect="1" arrows="1" fold="1" page="1" pageScale="1" pageWidth="850" pageHeight="1100" math="0" shadow="0">
            <root>
                <mxCell id="0"/>
                <mxCell id="1" parent="0"/>
                <mxCell id="2" value="" style="html=1;shadow=0;dashed=0;align=center;verticalAlign=middle;shape=mxgraph.arrows2.uTurnArrow;dy=22;arrowHead=70;dx2=35;strokeColor=#ffffff;fillColor=#12AAB5;fontSize=12;fontColor=#3333FF;flipH=1;flipV=1;strokeWidth=4;" parent="1" vertex="1">
                    <mxGeometry x="640" y="1201" width="230" height="140" as="geometry"/>
                </mxCell>
                <mxCell id="3" value="" style="html=1;shadow=0;dashed=0;align=center;verticalAlign=middle;shape=mxgraph.arrows2.uTurnArrow;dy=22;arrowHead=70;dx2=35;strokeColor=#ffffff;fillColor=#23445D;fontSize=12;fontColor=#3333FF;flipV=1;strokeWidth=4;" parent="1" vertex="1">
                    <mxGeometry x="570" y="1122" width="230" height="140" as="geometry"/>
                </mxCell>
                <mxCell id="4" value="" style="html=1;shadow=0;dashed=0;align=center;verticalAlign=middle;shape=mxgraph.arrows2.uTurnArrow;dy=22;arrowHead=70;dx2=35;strokeColor=#ffffff;fillColor=#AE4132;fontSize=12;fontColor=#3333FF;flipH=1;flipV=1;strokeWidth=4;" parent="1" vertex="1">
                    <mxGeometry x="640" y="1043" width="230" height="140" as="geometry"/>
                </mxCell>
                <mxCell id="5" value="" style="html=1;shadow=0;dashed=0;align=center;verticalAlign=middle;shape=mxgraph.arrows2.uTurnArrow;dy=22;arrowHead=70;dx2=35;strokeColor=#ffffff;fillColor=#F2931E;fontSize=12;fontColor=#3333FF;flipV=1;strokeWidth=4;" parent="1" vertex="1">
                    <mxGeometry x="570" y="964" width="230" height="140" as="geometry"/>
                </mxCell>
                <mxCell id="6" value="" style="html=1;shadow=0;dashed=0;align=center;verticalAlign=middle;shape=mxgraph.arrows2.uTurnArrow;dy=22;arrowHead=70;dx2=35;strokeColor=#ffffff;fillColor=#10739E;fontSize=12;fontColor=#3333FF;flipH=1;flipV=1;strokeWidth=4;" parent="1" vertex="1">
                    <mxGeometry x="570" y="885" width="300" height="140" as="geometry"/>
                </mxCell>
                <mxCell id="7" value="&lt;font style=&quot;font-size: 10px&quot;&gt;&lt;b&gt;PROBLEM FRAMING&lt;/b&gt;&lt;br&gt;&lt;/font&gt;&lt;font style=&quot;font-size: 8px&quot;&gt;Framing the business problem&lt;/font&gt;" style="rounded=0;whiteSpace=wrap;shadow=0;strokeColor=none;strokeWidth=6;fillColor=none;fontSize=7;fontColor=#FFFFFF;align=left;html=1;spacingLeft=5;" parent="1" vertex="1">
                    <mxGeometry x="620" y="885" width="170" height="40" as="geometry"/>
                </mxCell>
                <mxCell id="8" value="&lt;font style=&quot;font-size: 10px&quot;&gt;&lt;b&gt;DATA ENGINEERING&lt;/b&gt;&lt;br&gt;&lt;/font&gt;&lt;font style=&quot;font-size: 8px&quot;&gt;Explore and analyze data&lt;/font&gt;" style="rounded=0;whiteSpace=wrap;shadow=0;strokeColor=none;strokeWidth=6;fillColor=none;fontSize=7;fontColor=#FFFFFF;align=left;html=1;spacingLeft=5;verticalAlign=middle;" parent="1" vertex="1">
                    <mxGeometry x="620" y="964" width="150" height="40" as="geometry"/>
                </mxCell>
                <mxCell id="9" value="&lt;font style=&quot;font-size: 10px&quot;&gt;&lt;b&gt;MODEL TRAINING &amp;amp; EVALUATION&lt;/b&gt;&lt;br&gt;&lt;/font&gt;&lt;font style=&quot;font-size: 8px&quot;&gt;Train the model and evaluate the performance&lt;/font&gt;" style="rounded=0;whiteSpace=wrap;shadow=0;strokeColor=none;strokeWidth=6;fillColor=none;fontSize=7;fontColor=#FFFFFF;align=left;html=1;spacingLeft=5;" parent="1" vertex="1">
                    <mxGeometry x="670" y="1043" width="190" height="40" as="geometry"/>
                </mxCell>
                <mxCell id="10" value="&lt;b style=&quot;font-size: 10px&quot;&gt;DEPLOYMENT&lt;br&gt;&lt;/b&gt;&lt;font style=&quot;font-size: 8px&quot;&gt;Host the model as a service&lt;/font&gt;" style="rounded=0;whiteSpace=wrap;shadow=0;strokeColor=none;strokeWidth=6;fillColor=none;fontSize=7;fontColor=#FFFFFF;align=left;html=1;spacingLeft=5;" parent="1" vertex="1">
                    <mxGeometry x="620" y="1122" width="150" height="40" as="geometry"/>
                </mxCell>
                <mxCell id="11" value="&lt;b&gt;&lt;font style=&quot;font-size: 10px&quot;&gt;MAINTENANCE&lt;/font&gt;&lt;/b&gt;&lt;br style=&quot;font-size: 7px&quot;&gt;&lt;font style=&quot;font-size: 8px&quot;&gt;Metrics, monitoring, documentation&lt;/font&gt;" style="rounded=0;whiteSpace=wrap;shadow=0;strokeColor=none;strokeWidth=6;fillColor=none;fontSize=7;fontColor=#FFFFFF;align=left;html=1;spacingLeft=5;" parent="1" vertex="1">
                    <mxGeometry x="670" y="1201" width="150" height="40" as="geometry"/>
                </mxCell>
            </root>
        </mxGraphModel>
    </diagram>
</mxfile>